<svg xmlns:xlink="http://www.w3.org/1999/xlink" xmlns="http://www.w3.org/2000/svg" width="53" height="53" viewBox="0 0 53 53" fill="none" class=""><g clip-path="url(#clip0_850:74884)" fill="none"><circle cx="26.5" cy="26.5" r="26.5" fill="#0063CB"></circle><path d="M53 26.5C53 41.136 41.136 53 26.5 53S0 41.136 0 26.5h53Z" fill="#0070E6"></path><path fill-rule="evenodd" clip-rule="evenodd" d="M36.002 22.17v4.32c-.24.321-.624.53-1.056.53H33.14a6.12 6.12 0 0 0-6.12 6.12v1.804c0 .434-.209.818-.532 1.058H22.17a5.17 5.17 0 0 1-5.17-5.17V22.17A5.17 5.17 0 0 1 22.17 17h8.662a5.17 5.17 0 0 1 5.17 5.17Zm-5.48 3.33.937-2.063 2.063-.937-2.063-.938-.937-2.062-.938 2.063-2.062.937 2.062.938.938 2.062Zm-7.022-3 1.406 3.094L28 27l-3.094 1.406L23.5 31.5l-1.406-3.094L19 27l3.094-1.406L23.5 22.5Z" fill="#F7F7F7"></path><path d="M34.946 28.52c.352 0 .69-.065 1-.183a3.87 3.87 0 0 1-1.078 2.088l-4.443 4.443a3.87 3.87 0 0 1-2.087 1.079 2.81 2.81 0 0 0 .184-1.003V33.14a4.62 4.62 0 0 1 4.62-4.62h1.804Z" fill="#F7F7F7"></path></g><defs><clipPath id="clip0_850:74884"><path fill="#fff" d="M0 0h53v53H0z"></path></clipPath></defs></svg>